<mxfile host="app.diagrams.net" modified="2020-05-11T18:24:14.467Z" agent="5.0 (Windows NT 10.0; Win64; x64) AppleWebKit/537.36 (KHTML, like Gecko) Chrome/81.0.4044.138 Safari/537.36" etag="xbLaHpiFA7XLYiIrlm7Q" version="13.0.9" type="github">
  <diagram id="p_vnUA05xivfY9-vF9KV" name="Page-1">
    <mxGraphModel dx="782" dy="469" grid="1" gridSize="10" guides="1" tooltips="1" connect="1" arrows="1" fold="1" page="1" pageScale="1" pageWidth="827" pageHeight="1169" math="0" shadow="0">
      <root>
        <mxCell id="0" />
        <mxCell id="1" parent="0" />
        <mxCell id="lP36ZgE2J2wHQIp236rO-1" value="" style="ellipse;html=1;shape=startState;fillColor=#000000;strokeColor=#ff0000;" vertex="1" parent="1">
          <mxGeometry x="384" y="20" width="30" height="30" as="geometry" />
        </mxCell>
        <mxCell id="lP36ZgE2J2wHQIp236rO-2" value="" style="edgeStyle=orthogonalEdgeStyle;html=1;verticalAlign=bottom;endArrow=open;endSize=8;strokeColor=#ff0000;" edge="1" source="lP36ZgE2J2wHQIp236rO-1" parent="1">
          <mxGeometry relative="1" as="geometry">
            <mxPoint x="400" y="120" as="targetPoint" />
            <Array as="points">
              <mxPoint x="399" y="80" />
              <mxPoint x="400" y="80" />
            </Array>
          </mxGeometry>
        </mxCell>
        <mxCell id="lP36ZgE2J2wHQIp236rO-3" value="Go to Dashboard/ Employees" style="rounded=1;whiteSpace=wrap;html=1;arcSize=40;fontColor=#000000;fillColor=#ffffc0;strokeColor=#ff0000;" vertex="1" parent="1">
          <mxGeometry x="339" y="120" width="120" height="40" as="geometry" />
        </mxCell>
        <mxCell id="lP36ZgE2J2wHQIp236rO-4" value="" style="edgeStyle=orthogonalEdgeStyle;html=1;verticalAlign=bottom;endArrow=open;endSize=8;strokeColor=#ff0000;" edge="1" source="lP36ZgE2J2wHQIp236rO-3" parent="1">
          <mxGeometry relative="1" as="geometry">
            <mxPoint x="399" y="220" as="targetPoint" />
          </mxGeometry>
        </mxCell>
        <mxCell id="lP36ZgE2J2wHQIp236rO-5" value="Register a New Employee" style="rounded=1;whiteSpace=wrap;html=1;arcSize=40;fontColor=#000000;fillColor=#ffffc0;strokeColor=#ff0000;" vertex="1" parent="1">
          <mxGeometry x="339" y="220" width="120" height="40" as="geometry" />
        </mxCell>
        <mxCell id="lP36ZgE2J2wHQIp236rO-6" value="" style="edgeStyle=orthogonalEdgeStyle;html=1;verticalAlign=bottom;endArrow=open;endSize=8;strokeColor=#ff0000;" edge="1" source="lP36ZgE2J2wHQIp236rO-5" parent="1">
          <mxGeometry relative="1" as="geometry">
            <mxPoint x="399" y="320" as="targetPoint" />
          </mxGeometry>
        </mxCell>
        <mxCell id="lP36ZgE2J2wHQIp236rO-7" value="Fill in the Form (Username &amp;amp; Password)" style="rounded=1;whiteSpace=wrap;html=1;arcSize=40;fontColor=#000000;fillColor=#ffffc0;strokeColor=#ff0000;" vertex="1" parent="1">
          <mxGeometry x="339" y="310" width="120" height="40" as="geometry" />
        </mxCell>
        <mxCell id="lP36ZgE2J2wHQIp236rO-8" value="" style="edgeStyle=orthogonalEdgeStyle;html=1;verticalAlign=bottom;endArrow=open;endSize=8;strokeColor=#ff0000;" edge="1" source="lP36ZgE2J2wHQIp236rO-7" parent="1">
          <mxGeometry relative="1" as="geometry">
            <mxPoint x="399" y="410" as="targetPoint" />
          </mxGeometry>
        </mxCell>
        <mxCell id="lP36ZgE2J2wHQIp236rO-9" value="" style="rhombus;whiteSpace=wrap;html=1;fillColor=#ffffc0;strokeColor=#ff0000;" vertex="1" parent="1">
          <mxGeometry x="360" y="410" width="80" height="40" as="geometry" />
        </mxCell>
        <mxCell id="lP36ZgE2J2wHQIp236rO-10" value="" style="edgeStyle=orthogonalEdgeStyle;html=1;align=left;verticalAlign=bottom;endArrow=open;endSize=8;strokeColor=#ff0000;" edge="1" source="lP36ZgE2J2wHQIp236rO-9" parent="1">
          <mxGeometry x="-1" relative="1" as="geometry">
            <mxPoint x="459" y="330" as="targetPoint" />
            <Array as="points">
              <mxPoint x="560" y="430" />
              <mxPoint x="560" y="330" />
              <mxPoint x="459" y="330" />
            </Array>
          </mxGeometry>
        </mxCell>
        <mxCell id="lP36ZgE2J2wHQIp236rO-11" value="" style="edgeStyle=orthogonalEdgeStyle;html=1;align=left;verticalAlign=top;endArrow=open;endSize=8;strokeColor=#ff0000;" edge="1" source="lP36ZgE2J2wHQIp236rO-9" parent="1">
          <mxGeometry x="-1" y="-20" relative="1" as="geometry">
            <mxPoint x="400" y="510" as="targetPoint" />
            <mxPoint x="20" y="-20" as="offset" />
          </mxGeometry>
        </mxCell>
        <mxCell id="lP36ZgE2J2wHQIp236rO-12" value="Reset" style="text;html=1;align=center;verticalAlign=middle;resizable=0;points=[];autosize=1;" vertex="1" parent="1">
          <mxGeometry x="451" y="411" width="50" height="20" as="geometry" />
        </mxCell>
        <mxCell id="lP36ZgE2J2wHQIp236rO-14" value="Submit" style="text;html=1;align=center;verticalAlign=middle;resizable=0;points=[];autosize=1;" vertex="1" parent="1">
          <mxGeometry x="334" y="460" width="50" height="20" as="geometry" />
        </mxCell>
        <mxCell id="lP36ZgE2J2wHQIp236rO-15" value="" style="shape=line;html=1;strokeWidth=6;strokeColor=#ff0000;" vertex="1" parent="1">
          <mxGeometry x="301" y="510" width="200" height="10" as="geometry" />
        </mxCell>
        <mxCell id="lP36ZgE2J2wHQIp236rO-16" value="" style="edgeStyle=orthogonalEdgeStyle;html=1;verticalAlign=bottom;endArrow=open;endSize=8;strokeColor=#ff0000;" edge="1" source="lP36ZgE2J2wHQIp236rO-15" parent="1">
          <mxGeometry relative="1" as="geometry">
            <mxPoint x="330" y="590" as="targetPoint" />
            <Array as="points">
              <mxPoint x="330" y="590" />
            </Array>
          </mxGeometry>
        </mxCell>
        <mxCell id="lP36ZgE2J2wHQIp236rO-17" value="" style="edgeStyle=orthogonalEdgeStyle;html=1;verticalAlign=bottom;endArrow=open;endSize=8;strokeColor=#ff0000;exitX=0.75;exitY=0.5;exitDx=0;exitDy=0;exitPerimeter=0;" edge="1" parent="1" source="lP36ZgE2J2wHQIp236rO-15">
          <mxGeometry relative="1" as="geometry">
            <mxPoint x="451" y="590" as="targetPoint" />
            <mxPoint x="411" y="530" as="sourcePoint" />
            <Array as="points">
              <mxPoint x="451" y="570" />
              <mxPoint x="451" y="570" />
            </Array>
          </mxGeometry>
        </mxCell>
        <mxCell id="lP36ZgE2J2wHQIp236rO-18" value="Employee is added to the Users Database" style="rounded=1;whiteSpace=wrap;html=1;arcSize=40;fontColor=#000000;fillColor=#ffffc0;strokeColor=#ff0000;" vertex="1" parent="1">
          <mxGeometry x="270" y="590" width="120" height="40" as="geometry" />
        </mxCell>
        <mxCell id="lP36ZgE2J2wHQIp236rO-19" value="" style="edgeStyle=orthogonalEdgeStyle;html=1;verticalAlign=bottom;endArrow=open;endSize=8;strokeColor=#ff0000;" edge="1" source="lP36ZgE2J2wHQIp236rO-18" parent="1">
          <mxGeometry relative="1" as="geometry">
            <mxPoint x="330" y="690" as="targetPoint" />
          </mxGeometry>
        </mxCell>
        <mxCell id="lP36ZgE2J2wHQIp236rO-20" value="New Employee is shown in the Employees&#39; List" style="rounded=1;whiteSpace=wrap;html=1;arcSize=40;fontColor=#000000;fillColor=#ffffc0;strokeColor=#ff0000;" vertex="1" parent="1">
          <mxGeometry x="400" y="590" width="120" height="40" as="geometry" />
        </mxCell>
        <mxCell id="lP36ZgE2J2wHQIp236rO-21" value="" style="edgeStyle=orthogonalEdgeStyle;html=1;verticalAlign=bottom;endArrow=open;endSize=8;strokeColor=#ff0000;" edge="1" source="lP36ZgE2J2wHQIp236rO-20" parent="1">
          <mxGeometry relative="1" as="geometry">
            <mxPoint x="460" y="690" as="targetPoint" />
          </mxGeometry>
        </mxCell>
        <mxCell id="lP36ZgE2J2wHQIp236rO-22" value="" style="shape=line;html=1;strokeWidth=6;strokeColor=#ff0000;" vertex="1" parent="1">
          <mxGeometry x="290" y="690" width="200" height="10" as="geometry" />
        </mxCell>
        <mxCell id="lP36ZgE2J2wHQIp236rO-23" value="" style="edgeStyle=orthogonalEdgeStyle;html=1;verticalAlign=bottom;endArrow=open;endSize=8;strokeColor=#ff0000;" edge="1" source="lP36ZgE2J2wHQIp236rO-22" parent="1">
          <mxGeometry relative="1" as="geometry">
            <mxPoint x="390" y="770" as="targetPoint" />
          </mxGeometry>
        </mxCell>
        <mxCell id="lP36ZgE2J2wHQIp236rO-24" value="" style="ellipse;html=1;shape=endState;fillColor=#000000;strokeColor=#ff0000;" vertex="1" parent="1">
          <mxGeometry x="375" y="770" width="30" height="30" as="geometry" />
        </mxCell>
      </root>
    </mxGraphModel>
  </diagram>
</mxfile>
